<svg xmlns="http://www.w3.org/2000/svg" viewBox="0 0 512 512" width="512" height="512">
  <defs>
    <linearGradient id="bg" x1="0" y1="0" x2="1" y2="1">
      <stop offset="0" stop-color="#250050"/>
      <stop offset="0.55" stop-color="#3b0080"/>
      <stop offset="1" stop-color="#7c3aed"/>
    </linearGradient>
    <linearGradient id="bolt" x1="0" y1="0" x2="0" y2="1">
      <stop offset="0" stop-color="#fde68a"/>
      <stop offset="0.5" stop-color="#fbbf24"/>
      <stop offset="1" stop-color="#f59e0b"/>
    </linearGradient>
    <radialGradient id="glow" cx="0.5" cy="0.45" r="0.62">
      <stop offset="0" stop-color="#c084fc" stop-opacity="0.55"/>
      <stop offset="1" stop-color="#c084fc" stop-opacity="0"/>
    </radialGradient>
    <filter id="soft" x="-30%" y="-30%" width="160%" height="160%">
      <feDropShadow dx="0" dy="7" stdDeviation="11" flood-color="#000" flood-opacity="0.35"/>
    </filter>
  </defs>
  <rect width="512" height="512" rx="112" fill="url(#bg)"/>
  <circle cx="256" cy="232" r="185" fill="url(#glow)"/>
  <path fill="#f472b6" d="M122 150 l11 27 27 11 -27 11 -11 27 -11 -27 -27 -11 27 -11 z"/>
  <path fill="#fde68a" d="M392 330 l8 21 21 8 -21 8 -8 21 -8 -21 -21 -8 21 -8 z"/>
  <g fill="#ffffff" opacity="0.92">
    <circle cx="150" cy="384" r="6"/>
    <circle cx="384" cy="150" r="7"/>
    <circle cx="300" cy="424" r="5"/>
  </g>
  <path filter="url(#soft)" fill="url(#bolt)" stroke="#fff7e0" stroke-width="7" stroke-linejoin="round"
    d="M300 66 L162 286 L246 286 L206 456 L362 230 L278 230 Z"/>
</svg>
